HIERARCHY
ROOT ui
{
	 OFFSET 0 0 0
	 CHANNELS 3 XPosition YPosition Z Position
	 EndSite
	 {
	 OFFSET 0 -1 0
	 }
}
ROOT li
{
	 OFFSET 0 0 0
	 CHANNELS 3 XPosition YPosition Z Position
	 EndSite
	 {
	 OFFSET 0 -1 0
	 }
}
ROOT ul
{
	 OFFSET 0 0 0
	 CHANNELS 3 XPosition YPosition Z Position
	 EndSite
	 {
	 OFFSET 0 -1 0
	 }
}
ROOT ll
{
	 OFFSET 0 0 0
	 CHANNELS 3 XPosition YPosition Z Position
	 EndSite
	 {
	 OFFSET 0 -1 0
	 }
}
ROOT tt
{
	 OFFSET 0 0 0
	 CHANNELS 3 XPosition YPosition Z Position
	 EndSite
	 {
	 OFFSET 0 -1 0
	 }
}
ROOT tb
{
	 OFFSET 0 0 0
	 CHANNELS 3 XPosition YPosition Z Position
	 EndSite
	 {
	 OFFSET 0 -1 0
	 }
}
ROOT td
{
	 OFFSET 0 0 0
	 CHANNELS 3 XPosition YPosition Z Position
	 EndSite
	 {
	 OFFSET 0 -1 0
	 }
}
ROOT v
{
	 OFFSET 0 0 0
	 CHANNELS 3 XPosition YPosition Z Position
	 EndSite
	 {
	 OFFSET 0 -1 0
	 }
}
ROOT bn
{
	 OFFSET 0 0 0
	 CHANNELS 3 XPosition YPosition Z Position
	 EndSite
	 {
	 OFFSET 0 -1 0
	 }
}
MOTION
Frames: 10
Frame Time: 0.002
0.001495885968208313	3.3022400736808775E-4	0		0.4773605041503906	-2.41971630859375	0		-1.140565185546875	0.11784431457519531	0		-0.8148430786132812	-2.67896484375	0		1.3774442138671874	-0.7321527709960938	0		3.233268798828125	-0.2805906982421875	0		4.59688671875	-0.09193910217285156	0		5.60842822265625	0.15347840881347657	0		-0.3314527587890625	5.89230712890625	0		
0.006108320236206054	0.003626589059829712	0		0.45686798095703124	-2.411239501953125	0		-1.1240299072265625	0.111110107421875	0		-0.7723955688476563	-2.6759375	0		1.437884033203125	-0.7444096069335937	0		3.2777451171875	-0.2918266906738281	0		4.585578125	-0.0787894515991211	0		5.613052734375	0.13434951782226562	0		-0.3134391174316406	5.9005146484375	0		
0.008800798416137696	0.013949892044067384	0		0.504371826171875	-2.406322998046875	0		-1.1353388671875	0.12061947631835937	0		-0.8178535766601562	-2.664162109375	0		1.381567626953125	-0.7296738891601563	0		3.265547119140625	-0.2665733642578125	0		4.60021435546875	-0.0748418960571289	0		5.61214697265625	0.1620737609863281	0		-0.2794364013671875	5.90559521484375	0		
-0.023645822525024413	0.006590365886688232	0		0.4738274841308594	-2.408728515625	0		-1.03268212890625	0.12417748260498047	0		-0.74747607421875	-2.674349609375	0		1.424083740234375	-0.7367509155273437	0		3.235007568359375	-0.2831382141113281	0		4.59283837890625	-0.07368035888671876	0		5.60967919921875	0.14836174011230469	0		-0.29355941772460936	5.89609912109375	0		
0.002967344045639038	0.005754412174224854	0		0.49926443481445315	-2.414583251953125	0		-1.0981361083984376	0.11518523406982421	0		-0.7860000610351563	-2.67358935546875	0		1.42465673828125	-0.7374442749023438	0		3.26559619140625	-0.28518841552734375	0		4.600396484375	-0.08060845947265625	0		5.61433935546875	0.13284181213378907	0		-0.3276700134277344	5.88980078125	0		
-0.02644737243652344	0.0024276731014251708	0		0.48169723510742185	-2.4210390625	0		-1.0975203857421876	0.11465739440917969	0		-0.78552978515625	-2.67413330078125	0		1.4311761474609375	-0.7441550903320312	0		3.2561396484375	-0.291857421875	0		4.59899365234375	-0.08241616058349609	0		5.6105361328125	0.14525933837890626	0		-0.32675320434570315	5.88923291015625	0		
0.004179056167602539	0.004616342067718506	0		0.48419805908203123	-2.419632568359375	0		-1.13287744140625	0.11846986389160157	0		-0.8070750122070313	-2.67645703125	0		1.3838470458984375	-0.732362060546875	0		3.255900146484375	-0.2725606689453125	0		4.604521484375	-0.09123571014404297	0		5.6109580078125	0.1438376922607422	0		-0.3107703552246094	5.8995654296875	0		
0.004770564079284668	0.004097795009613037	0		0.5047497253417969	-2.41234716796875	0		-1.0132940063476563	0.11596624755859375	0		-0.780552490234375	-2.671165771484375	0		1.4293863525390624	-0.735334228515625	0		3.246348876953125	-0.288137451171875	0		4.6032216796875	-0.07894371032714843	0		5.61849951171875	0.14063130187988282	0		-0.28995867919921875	5.89388720703125	0		
0.005350833892822266	0.0036143720149993896	0		0.47624136352539065	-2.41159716796875	0		-1.135730712890625	0.11360038757324219	0		-0.7820986938476563	-2.673599609375	0		1.426901611328125	-0.739849365234375	0		3.28002978515625	-0.27604214477539063	0		4.59670263671875	-0.09055287170410156	0		5.6146904296875	0.15679493713378906	0		-0.2891383666992188	5.893416015625	0		
0.010882689476013183	-8.777710199356079E-4	0		0.5016754150390625	-2.4172822265625	0		-1.02908447265625	0.12126223754882813	0		-0.7836468505859375	-2.676001708984375	0		1.427441650390625	-0.7403496704101562	0		3.256534912109375	-0.2823991394042969	0		4.60131884765625	-0.08520440673828125	0		5.619306640625	0.13827920532226562	0		-0.28835595703125	5.89297802734375	0		
